<!-- icon666.com - MILLIONS vector ICONS FREE --><svg id="Layer_1" enable-background="new 0 0 512 512" viewBox="0 0 512 512" xmlns="http://www.w3.org/2000/svg"><g id="XMLID_1_"><g id="XMLID_3624_"><path id="XMLID_1686_" d="m442.9 217.1-58.9-5.6-58.3-49.5c-12.7-10.8-28.9-16.8-45.7-16.8h-215l-31.5 66.7-13 64h-15.5l7.3 52h23.3 471.4v-40.3c0-36.5-27.8-67-64.1-70.5z" fill="#f37787" style="fill: rgb(168, 27, 208);"></path><path id="XMLID_1687_" d="m457.2 257.6h-9.7c-5.8 0-10.5-4.7-10.5-10.5 0-5.8 4.7-10.5 10.5-10.5h9.7c5.8 0 10.5 4.7 10.5 10.5 0 5.8-4.7 10.5-10.5 10.5z" fill="#ebeadf"></path><path id="XMLID_2273_" d="m457.2 257.6c-5.8 0-10.5-4.7-10.5-10.5 0-5.8 4.7-10.5 10.5-10.5 5.8 0 10.5 4.7 10.5 10.5 0 5.8-4.7 10.5-10.5 10.5z" fill="#fff"></path><path id="XMLID_1685_" d="m507 305.8h-14c-6.1 0-11-4.9-11-11 0-6.1 4.9-11 11-11h14z" fill="#ebeadf"></path><path id="XMLID_1679_" d="m24 259h20v-34h-13.1z" fill="#db3328"></path><path id="XMLID_634_" d="m39.8 224.8v10.3c0 7.6-6.1 13.7-13.7 13.7l-2 10h20v-34z" fill="#b5100b" style="fill: rgb(136, 5, 138);"></path><path id="XMLID_391_" d="m30.9 225h438.1c-7.9-4-16.7-6.8-26.1-7.7l-56.2-5.3h-353.2z" fill="#ffa1b1" style="fill: rgb(244, 163, 255);"></path><path id="XMLID_1986_" d="m363 305.8v-94h-10v94h-163.4l-10.5-94h-10.1l10.5 94h-145.5v-18.7c0-6.3-5.1-11.3-11.3-11.3h-17.7l7.3 52h11.7 10 148 10 161 10 144v-22z" fill="#d84861" style="fill: rgb(150, 16, 152);"></path><path id="XMLID_967_" d="m384 211.7-58.3-49.7c-12.7-10.9-28.9-17-45.6-17h-215.1l-31.5 67h353.2z" fill="#323d2c"></path><path id="XMLID_2304_" d="m326.9 163h-270.4l-23 49h353.2l-2.7-.3z" fill="#1c2617"></path><g fill="#485143"><path id="XMLID_1684_" d="m94 163-21 49h93l-5-49z" fill="#485143"></path><path id="XMLID_1683_" d="m272 162.8h-90l5 49h165l-31.7-29.8c-13-12.3-30.3-19.2-48.3-19.2z" fill="#485143"></path><path id="XMLID_1981_" d="m72.9 162.8h-16.4l-23 49h16.7z" fill="#485143"></path></g><path id="XMLID_1984_" d="m326.9 162.8h-14l55.6 49h15.5z" fill="#747e6c"></path><g id="XMLID_1681_"><path id="XMLID_1982_" d="m203 236h39v10h-39z" fill="#323d2c"></path></g><path id="XMLID_2276_" d="m141 163h-35.3l40.7 49h19.6l-2.2-21.5z" fill="#747e6c"></path><path id="XMLID_2274_" d="m182 163 3.6 35.2 11.5 13.8h57.2l-40.7-49z" fill="#747e6c"></path><circle id="XMLID_1691_" cx="417.3" cy="318.1" fill="#323d2c" r="48.7"></circle><circle id="XMLID_1690_" cx="93.1" cy="318.1" fill="#323d2c" r="48.7"></circle><path id="XMLID_627_" d="m95.3 269.4c-4-.2-8 .1-11.8.9-4.3.8-3.5 7.1.8 7.1h.7c26.7 0 48.7 22 48.7 48.7v.7c-.1 4.3 6.2 5.1 7.1.8.7-3.8 1.1-7.7.9-11.8-1.1-25-21.4-45.3-46.4-46.4z" fill="#485143"></path><path id="XMLID_2303_" d="m114.9 341.7c-24.3-1.5-43.9-21.2-45.5-45.5 0-.2 0-.4 0-.6-.5-8.9-11.9-12-16.9-4.6-5.6 8.3-8.6 18.5-8.1 29.3 1.2 24.9 21.4 45.2 46.4 46.4 10.9.5 21-2.6 29.3-8.1 7.4-5 4.3-16.4-4.6-16.9-.2 0-.4 0-.6 0z" fill="#1c2617"></path><path id="XMLID_1682_" d="m439.1 341.7c-24.3-1.5-43.9-21.2-45.5-45.5 0-.2 0-.4 0-.6-.5-8.9-11.9-12-16.9-4.6-5.6 8.3-8.6 18.5-8.1 29.3 1.2 24.9 21.4 45.2 46.4 46.4 10.9.5 21-2.6 29.3-8.1 7.4-5 4.3-16.4-4.6-16.9-.2 0-.4 0-.6 0z" fill="#1c2617"></path><circle id="XMLID_1689_" cx="93.1" cy="318.1" fill="#747e6c" r="23.9"></circle><path id="XMLID_620_" d="m95 294.2c-1.3-.1-2.6-.1-3.9 0-2.5.2-2.4 3.8.1 4h.3c11.2 1.1 20.3 10.2 21.4 21.4v.3c.2 2.5 3.8 2.5 4 .1.1-1.3.1-2.6 0-3.9-.9-11.5-10.3-21-21.9-21.9z" fill="#c4c1ab"></path><path id="XMLID_2306_" d="m101.3 330.9c-11-1.2-19.8-10-21-21 0-.1 0-.2 0-.3-.5-4.7-6.8-5.9-8.9-1.7-1.7 3.6-2.5 7.7-2.2 12 .8 11.7 10.4 21.3 22.1 22.1 4.3.3 8.4-.5 11.9-2.2 4.3-2 3-8.4-1.7-8.9 0 0-.1 0-.2 0z" fill="#485143"></path><circle id="XMLID_1688_" cx="417.1" cy="318.1" fill="#747e6c" r="23.9"></circle><path id="XMLID_628_" d="m419.3 269.4c-4-.2-8 .1-11.8.9-4.3.8-3.5 7.1.8 7.1h.7c26.7 0 48.7 22 48.7 48.7v.7c-.1 4.3 6.2 5.1 7.1.8.7-3.8 1.1-7.7.9-11.8-1.1-25-21.4-45.3-46.4-46.4z" fill="#485143"></path><path id="XMLID_410_" d="m419 294.2c-1.3-.1-2.6-.1-3.9 0-2.5.2-2.4 3.8.1 4h.3c11.2 1.1 20.3 10.2 21.4 21.4v.3c.2 2.5 3.8 2.5 4 .1.1-1.3.1-2.6 0-3.9-.9-11.5-10.3-21-21.9-21.9z" fill="#c4c1ab"></path><path id="XMLID_126_" d="m425.3 330.9c-11-1.2-19.8-10-21-21 0-.1 0-.2 0-.3-.5-4.7-6.8-5.9-8.9-1.7-1.7 3.6-2.5 7.7-2.2 12 .8 11.7 10.4 21.3 22.1 22.1 4.3.3 8.4-.5 11.9-2.2 4.3-2 3-8.4-1.7-8.9 0 0-.1 0-.2 0z" fill="#485143"></path></g></g></svg>